<svg xmlns="http://www.w3.org/2000/svg" viewBox="0 0 32 32"><linearGradient id="a" gradientUnits="userSpaceOnUse" x1="16" y1="32" x2="16"><stop offset="0" stop-color="#B72922"/><stop offset="1" stop-color="#DC2526"/></linearGradient><path fill="url(#a)" d="M16 0C7.2 0 0 7.2 0 16s7.2 16 16 16 16-7.2 16-16S24.8 0 16 0zm0 26.7c-1.5 0-2.7-1.2-2.7-2.7s1.2-2.7 2.7-2.7c1.5 0 2.7 1.2 2.7 2.7s-1.2 2.7-2.7 2.7zm3-18.5l-1.9 10.9h-2.3L13 8.2v-.6c0-1.6 1-2.3 3.1-2.4 2 0 3.1.8 3.1 2.3-.1.3-.1.5-.2.7z"/></svg>