<svg xmlns="http://www.w3.org/2000/svg" viewBox="0 0 32 32"><linearGradient id="a" gradientUnits="userSpaceOnUse" x1="16" y1="32" x2="16"><stop offset="0" stop-color="#0079E3"/><stop offset="1" stop-color="#00A9FC"/></linearGradient><path fill="url(#a)" d="M16 0C7.2 0 0 7.2 0 16s7.2 16 16 16 16-7.2 16-16S24.8 0 16 0zm1.4 27.7H14v-3.2h3.4v3.2zm5.3-13.6c-.7 1.2-1.7 2.2-2.7 3-.7.5-1.3 1.1-1.9 1.8-.3.4-.5.8-.7 1.3-.2.7-.3 1.4-.3 2.2h-2.9v-.6c0-1 .1-1.9.5-2.9.3-.7.7-1.3 1.2-1.8.7-.7 1.4-1.4 2.1-2 .7-.5 1.2-1.1 1.6-1.9.3-.5.4-1.1.4-1.7 0-1-.4-2-1.3-2.6-.8-.7-1.9-1.1-3-1-1.1 0-2.1.4-2.9 1.2-.6.8-1 1.9-1.1 2.9H8.6c.3-2.1.5-3.8 1.9-5.3C11.7 5.3 13.6 5 15.8 5c2.1-.1 4.1.5 5.7 1.8 1.3 1.1 2 2.7 1.9 4.3.1 1.1-.2 2.1-.7 3z"/></svg>