<svg xmlns="http://www.w3.org/2000/svg" viewBox="0 0 32 32"><linearGradient id="a" gradientUnits="userSpaceOnUse" x1="16" y1="32" x2="16"><stop offset="0" stop-color="#0079E3"/><stop offset="1" stop-color="#00A9FC"/></linearGradient><path fill="url(#a)" d="M16 0C7.2 0 0 7.2 0 16s7.2 16 16 16 16-7.2 16-16S24.8 0 16 0zm1.8 29.1h-3.6v-1.8h3.6v1.8zm3.3-2.8H10.9v-1.8h10.2v1.8zm0-2.9H10.9v-1.8h10.2v1.8zm1.6-7.7c-.7 1.4-1.3 2.8-1.6 4.4h-2.4c.3-1.9 1-3.7 1.9-5.3.8-1.7 1.5-3.2 1.3-4.5-.3-1.5-1.3-2.8-2.6-3.5-1-.5-2.1-.8-3.1-.8-1.1 0-2.2.2-3.2.7-1.4.7-2.5 2-2.8 3.6-.3 1.3.5 2.8 1.3 4.5.9 1.7 1.5 3.5 1.9 5.3H11c-.3-1.5-.9-2.9-1.6-4.3-1-2.1-1.9-3.9-1.4-6 .4-2.3 1.9-4.2 4-5.2 1.3-.6 2.8-.9 4.2-.9 1.5 0 2.9.4 4.2 1 2 1 3.5 2.9 3.9 5.1.2 2-.6 3.9-1.6 5.9z"/></svg>