<svg xmlns="http://www.w3.org/2000/svg" viewBox="0 0 32 29"><linearGradient id="a" gradientUnits="userSpaceOnUse" x1="15.999" y1="28.999" x2="15.999" y2="-.004"><stop offset="0" stop-color="#EA6E23"/><stop offset="1" stop-color="#EF9816"/></linearGradient><path fill="url(#a)" d="M31.6 23.7c-1.8-4-3.8-7.8-6-11.5-2.2-3.9-4.7-7.6-7.5-11.2-.9-1.1-2.5-1.3-3.6-.4-.1.1-.3.2-.4.4-2.9 3.4-5.4 7.1-7.6 11-2.2 3.8-4.2 7.7-5.9 11.7-1.1 2.5-.2 4 2.3 4.4 4.3.6 8.7.9 13.1.9s8.9-.3 13.3-.9c2.5-.4 3.3-2 2.3-4.4zM16 26.3c-1.2 0-2.2-1-2.2-2.2s1-2.2 2.2-2.2c1.2 0 2.2 1 2.2 2.2s-.9 2.2-2.2 2.2c.1 0 0 0 0 0zm3.2-16.8l-2 11.2h-2.4l-2-11.2v-.6c0-1.6 1.1-2.4 3.2-2.4s3.2.8 3.2 2.4c.1.2 0 .4 0 .6z"/></svg>