<svg xmlns="http://www.w3.org/2000/svg" xmlns:xlink="http://www.w3.org/1999/xlink" preserveAspectRatio="xMidYMid" width="30" height="240" viewBox="0 0 30 240">
  <defs>
    <style>
      .cls-1 {
        fill: #fff;
      }

      .cls-1, .cls-3 {
        fill-rule: evenodd;
      }

      .cls-2, .cls-3 {
        fill: #a1a3a1;
      }
    </style>
  </defs>
  <g>
    <g>
      <path d="M20.008,219.992 L28.000,220.000 L28.000,228.000 L20.000,228.000 L20.008,219.992 ZM20.000,210.000 L28.000,210.000 L28.000,218.000 L20.000,218.000 L20.000,210.000 ZM9.992,230.008 L18.000,230.000 L18.000,238.000 L10.000,238.000 L9.992,230.008 ZM10.000,210.000 L18.000,210.000 L18.000,218.000 L10.000,218.000 L10.000,210.000 ZM-0.000,230.008 L8.000,230.000 L8.000,238.000 L-0.000,238.000 L-0.000,230.008 ZM-0.000,219.992 L8.000,220.000 L8.000,228.000 L-0.000,228.000 L-0.000,219.992 ZM-0.000,210.000 L8.000,210.000 L8.000,218.000 L-0.000,218.000 L-0.000,210.000 ZM26.000,230.000 L30.000,234.000 L29.999,240.000 L24.000,240.000 L20.000,236.000 L20.007,230.008 L26.000,230.000 Z" class="cls-1"/>
      <rect y="220" width="8" height="8" class="cls-2"/>
    </g>
    <g>
      <path d="M20.008,189.992 L28.000,190.000 L28.000,198.000 L20.000,198.000 L20.008,189.992 ZM20.000,180.000 L28.000,180.000 L28.000,188.000 L20.000,188.000 L20.000,180.000 ZM9.992,200.008 L18.000,200.000 L18.000,208.000 L10.000,208.000 L9.992,200.008 ZM10.000,180.000 L18.000,180.000 L18.000,188.000 L10.000,188.000 L10.000,180.000 ZM-0.000,200.008 L8.000,200.000 L8.000,208.000 L-0.000,208.000 L-0.000,200.008 ZM-0.000,189.992 L8.000,190.000 L8.000,198.000 L-0.000,198.000 L-0.000,189.992 ZM-0.000,180.000 L8.000,180.000 L8.000,188.000 L-0.000,188.000 L-0.000,180.000 ZM26.000,200.000 L30.000,204.000 L29.999,210.000 L24.000,210.000 L20.000,206.000 L20.007,200.008 L26.000,200.000 Z" class="cls-1"/>
      <rect y="200" width="8" height="8" class="cls-2"/>
    </g>
    <g>
      <path d="M20.008,159.992 L28.000,160.000 L28.000,168.000 L20.000,168.000 L20.008,159.992 ZM20.000,150.000 L28.000,150.000 L28.000,158.000 L20.000,158.000 L20.000,150.000 ZM9.992,170.008 L18.000,170.000 L18.000,178.000 L10.000,178.000 L9.992,170.008 ZM10.000,150.000 L18.000,150.000 L18.000,158.000 L10.000,158.000 L10.000,150.000 ZM-0.000,170.008 L8.000,170.000 L8.000,178.000 L-0.000,178.000 L-0.000,170.008 ZM-0.000,159.992 L8.000,160.000 L8.000,168.000 L-0.000,168.000 L-0.000,159.992 ZM-0.000,150.000 L8.000,150.000 L8.000,158.000 L-0.000,158.000 L-0.000,150.000 ZM26.000,170.000 L30.000,174.000 L29.999,180.000 L24.000,180.000 L20.000,176.000 L20.007,170.008 L26.000,170.000 Z" class="cls-1"/>
      <rect x="10" y="170" width="8" height="8" class="cls-2"/>
    </g>
    <g>
      <path d="M20.008,129.992 L28.000,130.000 L28.000,138.000 L20.000,138.000 L20.008,129.992 ZM20.000,120.000 L28.000,120.000 L28.000,128.000 L20.000,128.000 L20.000,120.000 ZM9.992,140.008 L18.000,140.000 L18.000,148.000 L10.000,148.000 L9.992,140.008 ZM10.000,120.000 L18.000,120.000 L18.000,128.000 L10.000,128.000 L10.000,120.000 ZM-0.000,140.008 L8.000,140.000 L8.000,148.000 L-0.000,148.000 L-0.000,140.008 ZM-0.000,129.992 L8.000,130.000 L8.000,138.000 L-0.000,138.000 L-0.000,129.992 ZM-0.000,120.000 L8.000,120.000 L8.000,128.000 L-0.000,128.000 L-0.000,120.000 ZM26.000,140.000 L30.000,144.000 L29.999,150.000 L24.000,150.000 L20.000,146.000 L20.007,140.008 L26.000,140.000 Z" class="cls-1"/>
      <path d="M26.000,140.000 L20.007,140.008 L20.000,146.000 L24.000,150.000 L29.999,150.000 L30.000,144.000 L26.000,140.000 Z" class="cls-3"/>
    </g>
    <g>
      <path d="M20.008,99.992 L28.000,100.000 L28.000,108.000 L20.000,108.000 L20.008,99.992 ZM20.000,90.000 L28.000,90.000 L28.000,98.000 L20.000,98.000 L20.000,90.000 ZM9.992,110.008 L18.000,110.000 L18.000,118.000 L10.000,118.000 L9.992,110.008 ZM10.000,90.000 L18.000,90.000 L18.000,98.000 L10.000,98.000 L10.000,90.000 ZM-0.000,110.008 L8.000,110.000 L8.000,118.000 L-0.000,118.000 L-0.000,110.008 ZM-0.000,99.992 L8.000,100.000 L8.000,108.000 L-0.000,108.000 L-0.000,99.992 ZM-0.000,90.000 L8.000,90.000 L8.000,98.000 L-0.000,98.000 L-0.000,90.000 ZM26.000,110.000 L30.000,114.000 L29.999,120.000 L24.000,120.000 L20.000,116.000 L20.007,110.008 L26.000,110.000 Z" class="cls-1"/>
      <rect x="20" y="100" width="8" height="8" class="cls-2"/>
    </g>
    <g>
      <path d="M20.008,69.992 L28.000,70.000 L28.000,78.000 L20.000,78.000 L20.008,69.992 ZM20.000,60.000 L28.000,60.000 L28.000,68.000 L20.000,68.000 L20.000,60.000 ZM9.992,80.008 L18.000,80.000 L18.000,88.000 L10.000,88.000 L9.992,80.008 ZM10.000,60.000 L18.000,60.000 L18.000,68.000 L10.000,68.000 L10.000,60.000 ZM-0.000,80.008 L8.000,80.000 L8.000,88.000 L-0.000,88.000 L-0.000,80.008 ZM-0.000,69.992 L8.000,70.000 L8.000,78.000 L-0.000,78.000 L-0.000,69.992 ZM-0.000,60.000 L8.000,60.000 L8.000,68.000 L-0.000,68.000 L-0.000,60.000 ZM26.000,80.000 L30.000,84.000 L29.999,90.000 L24.000,90.000 L20.000,86.000 L20.007,80.008 L26.000,80.000 Z" class="cls-1"/>
      <rect x="20" y="60" width="8" height="8" class="cls-2"/>
    </g>
    <g>
      <path d="M20.008,39.992 L28.000,40.000 L28.000,48.000 L20.000,48.000 L20.008,39.992 ZM20.000,30.000 L28.000,30.000 L28.000,38.000 L20.000,38.000 L20.000,30.000 ZM9.992,50.008 L18.000,50.000 L18.000,58.000 L10.000,58.000 L9.992,50.008 ZM10.000,30.000 L18.000,30.000 L18.000,38.000 L10.000,38.000 L10.000,30.000 ZM-0.000,50.008 L8.000,50.000 L8.000,58.000 L-0.000,58.000 L-0.000,50.008 ZM-0.000,39.992 L8.000,40.000 L8.000,48.000 L-0.000,48.000 L-0.000,39.992 ZM-0.000,30.000 L8.000,30.000 L8.000,38.000 L-0.000,38.000 L-0.000,30.000 ZM26.000,50.000 L30.000,54.000 L29.999,60.000 L24.000,60.000 L20.000,56.000 L20.007,50.008 L26.000,50.000 Z" class="cls-1"/>
      <rect x="10" y="30" width="8" height="8" class="cls-2"/>
    </g>
    <g>
      <path d="M20.008,9.992 L28.000,10.000 L28.000,18.000 L20.000,18.000 L20.008,9.992 ZM20.000,-0.000 L28.000,-0.000 L28.000,8.000 L20.000,8.000 L20.000,-0.000 ZM9.992,20.008 L18.000,20.000 L18.000,28.000 L10.000,28.000 L9.992,20.008 ZM10.000,-0.000 L18.000,-0.000 L18.000,8.000 L10.000,8.000 L10.000,-0.000 ZM-0.000,20.008 L8.000,20.000 L8.000,28.000 L-0.000,28.000 L-0.000,20.008 ZM-0.000,9.992 L8.000,10.000 L8.000,18.000 L-0.000,18.000 L-0.000,9.992 ZM-0.000,-0.000 L8.000,-0.000 L8.000,8.000 L-0.000,8.000 L-0.000,-0.000 ZM26.000,20.000 L30.000,24.000 L29.999,30.000 L24.000,30.000 L20.000,26.000 L20.007,20.008 L26.000,20.000 Z" class="cls-1"/>
      <rect width="8" height="8" class="cls-2"/>
    </g>
  </g>
</svg>
